<?xml version="1.0" encoding="UTF-8"?>
<svg width="118px" height="21px" viewBox="0 0 118 21" version="1.1" xmlns="http://www.w3.org/2000/svg" xmlns:xlink="http://www.w3.org/1999/xlink">
    <!-- Generator: Sketch 52.6 (67491) - http://www.bohemiancoding.com/sketch -->
    <title>Logo</title>
    <desc>Created with Sketch.</desc>
    <g id="Home" stroke="none" stroke-width="1" fill="none" fill-rule="evenodd">
        <g id="Home-UI" transform="translate(-661.000000, -56.000000)" fill="#FFFFFF">
            <g id="Cabeçalho" transform="translate(-110.000000, 0.000000)">
                <g id="Logo/White" transform="translate(771.000000, 50.000000)">
                    <g id="Logo_Void" transform="translate(0.000000, 6.794118)">
                        <path d="M107.37037,0.0485294118 L104,0.0485294118 L106.888889,0.533823529 C111.414815,1.31029412 114.737037,5.28970588 114.737037,9.9 C114.737037,14.5102941 111.366667,18.3926471 106.888889,19.0235294 L104.048148,19.4117647 L107.418519,19.4117647 C112.714815,19.4117647 117.048148,15.0441176 117.048148,9.70588235 C117.048148,4.36764706 112.666667,0.0485294118 107.37037,0.0485294118 Z" id="Path" fill-rule="nonzero"></path>
                        <path d="M97.7407407,4.22205882 L97.7407407,15.1411765 C97.7407407,16.9367647 98.6555556,18.5867647 100.148148,19.5088235 L100.148148,0 C98.6555556,0.873529412 97.7407407,2.475 97.7407407,4.22205882 Z" id="Path" fill-rule="nonzero"></path>
                        <path d="M76.0740741,4.22205882 L76.0740741,19.4117647 C77.5666667,18.5382353 78.4814815,16.9367647 78.4814815,15.1897059 L78.4814815,0 C76.9888889,0.873529412 76.0740741,2.475 76.0740741,4.22205882 Z" id="Path" fill-rule="nonzero"></path>
                        <path d="M47.1851852,0 C51.4222222,1.11617647 54.4074074,4.95 54.4074074,9.41470588 L54.4074074,10.4823529 C54.4074074,14.8014706 51.3740741,18.5382353 47.1851852,19.4117647 C52.4814815,19.4117647 56.8148148,15.0441176 56.8148148,9.70588235 C56.8148148,4.36764706 52.4814815,0 47.1851852,0 Z" id="Path" fill-rule="nonzero"></path>
                        <path d="M44.7777778,0 C39.4814815,0 35.1481481,4.36764706 35.1481481,9.70588235 C35.1481481,15.0441176 39.4814815,19.4117647 44.7777778,19.4117647 C40.5888889,18.5382353 37.5555556,14.8014706 37.5555556,10.4823529 L37.5555556,9.41470588 C37.5555556,4.95 40.5407407,1.11617647 44.7777778,0 Z" id="Path" fill-rule="nonzero"></path>
                        <path d="M17.5740741,4.17352941 L14.6851852,15.0926471 C14.2037037,16.8882353 13.0962963,18.3926471 11.5555556,19.3632353 C14.5407407,18.4411765 16.8037037,16.0147059 17.5740741,13.0058824 L20.7037037,0 C19.162963,0.922058824 18.0555556,2.42647059 17.5740741,4.17352941 Z" id="Path" fill-rule="nonzero"></path>
                        <path d="M6.01851852,15.1411765 L3.12962963,4.22205882 C2.64814815,2.42647059 1.54074074,0.922058824 0,0 L3.12962963,13.0544118 C3.9,16.0632353 6.16296296,18.4897059 9.14814815,19.4117647 C7.60740741,18.4411765 6.5,16.8882353 6.01851852,15.1411765 Z" id="Path" fill-rule="nonzero"></path>
                    </g>
                </g>
            </g>
        </g>
    </g>
</svg>